<svg width="256" height="256" viewBox="0 0 256 256" fill="none" xmlns="http://www.w3.org/2000/svg">
<path d="M134.188 217.818C134.188 152.091 134.188 86.6342 134.188 21C144.502 21 154.634 21 165.03 21C165.03 50.2679 165.03 79.4295 165.03 108.823C178.826 108.823 192.363 108.823 206.264 108.823C206.264 79.7121 206.264 50.5797 206.264 21.4116C223.111 23.1704 237.342 38.1805 237.354 54.0652C237.386 98.1058 237.368 142.146 237.307 186.187C237.297 193.049 237.608 199.991 236.633 206.754C234.696 220.187 221.445 232.079 207.198 234.068C207.025 234.092 206.833 233.991 206.372 233.884C206.372 202.059 206.372 170.17 206.372 138.107C192.549 138.107 179.003 138.107 165.228 138.107C165.228 170.179 165.228 202.234 165.228 234.504C154.861 234.504 144.719 234.504 134.187 234.504C134.187 229.048 134.187 223.569 134.188 217.818Z" fill="#FDFDFD"/>
<path d="M132.237 223.223C132.237 227.097 132.237 230.7 132.237 234.504C122.018 234.504 111.98 234.504 101.633 234.504C101.633 192.097 101.633 149.677 101.633 107.257C101.423 107.221 101.212 107.185 101.002 107.149C92.4826 129.437 83.963 151.724 75.328 174.314C66.6741 151.829 58.1225 129.61 49.5708 107.392C49.3819 107.417 49.1931 107.442 49.0043 107.467C49.0043 149.644 49.0043 191.821 49.0043 234.263C43.9496 233.686 39.6796 232.088 35.7593 229.763C24.2685 222.95 18.0679 213.209 18.0484 200.439C17.9737 151.796 18.0026 103.153 18.0228 54.51C18.0294 38.6793 30.7095 24.4408 47.129 21.7137C47.4901 21.6538 47.8589 21.6343 48.1964 21.5989C57.1582 45.4378 66.0771 69.1623 75.2307 93.5113C84.4721 68.9345 93.4595 45.0333 102.497 21C112.25 21 122.002 21 132.237 21C132.237 88.3351 132.237 155.644 132.237 223.223Z" fill="#FEFDFD"/>
</svg>
